<?xml version="1.0" encoding="utf-8"?>
<!-- Generator: Adobe Illustrator 26.0.1, SVG Export Plug-In . SVG Version: 6.00 Build 0)  -->
<svg version="1.1" xmlns="http://www.w3.org/2000/svg" xmlns:xlink="http://www.w3.org/1999/xlink" x="0px" y="0px"
	 viewBox="0 0 256 256" style="enable-background:new 0 0 256 256;" xml:space="preserve">
<style type="text/css">
	.st0{fill:#FFFFFF;}
</style>
<g id="レイヤー_1">
</g>
<g id="レイヤー_3">
	<rect width="256" height="256"/>
</g>
<g id="レイヤー_2">
	<path class="st0" d="M144.05,79.17c-2.5,48-0.5,96.2-0.7,144.2c-1,7.1-10.3,5.4-15.6,5.6c-5.5,0.6-14.9,1.4-15-6.4
		c0.7-32.8,0.6-65.9,0.4-98.6c-0.6-19.7,2.2-41.9-7.3-59.9c-8.3-7.5-21-7.8-30.1-1.9c-16.3,3.1-25.6,0.3-23-18.4
		c0-4.9,0.2-12.3,6.3-13.3c6-0.7,13-1.5,18.4,1.8c3.7,2.6,8.1,3.1,12.1,0.9c4.7-0.8,7.3-4.9,12-5.5c11.6-1.7,23.5-1.1,35,0.7
		c18,1.6,30.5,11.7,42.2,24.7c8.8,10.9,19.8,20.9,24.9,34.2c0.8,9.5-10.1,2.1-12.3-2.1c-10.2-11-25-29.2-40.9-29.3
		C143.35,60.57,144.95,71.47,144.05,79.17z"/>
</g>
</svg>
